<svg xmlns="http://www.w3.org/2000/svg" viewBox="0 0 341.26 117.69"><defs><style>.a{fill:#3d1177;}.b{fill:#fff;}.c{fill:#50cc00;}.d{fill:#fefdff;}</style></defs><title>logos</title><path class="a" d="M64.82,113.34c-16.3-.23-34.19-1.76-43.22-11.29-9.5-9-11-26.88-11.26-43.19.24-16.34,1.76-34.23,11.29-43.26,9-9.49,26.89-11,43.19-11.25,16.34.24,34.23,1.76,43.26,11.29,9.49,9,11,26.88,11.25,43.19-.23,16.34-1.76,34.23-11.29,43.26-9,9.49-26.88,11-43.19,11.25h0Z"/><path class="b" d="M64.84,5.35c17,.25,34,1.94,42.51,11,9,8.57,10.74,25.54,11,42.52-.24,17-1.94,33.95-11,42.51-8.56,9-25.54,10.74-42.51,11-17-.24-33.95-1.94-42.52-11-9-8.56-10.73-25.54-11-42.51.25-17,1.94-33.95,11-42.52,8.57-9,25.54-10.73,42.52-11m0-2h0c-16.5.24-34.61,1.8-43.9,11.57-9.77,9.29-11.33,27.4-11.57,43.9v.06c.24,16.49,1.8,34.6,11.57,43.9,9.29,9.76,27.4,11.32,43.9,11.56h.06c16.49-.24,34.6-1.8,43.9-11.56,9.76-9.3,11.32-27.41,11.56-43.9v-.06c-.24-16.5-1.8-34.61-11.56-43.91C99.47,5.15,81.36,3.59,64.87,3.35Z"/><path class="c" d="M70.34,61.11A3.35,3.35,0,0,0,67,64.46V85.87a3.35,3.35,0,0,0,6.69,0V64.46A3.35,3.35,0,0,0,70.34,61.11Z"/><path class="d" d="M26.35,46.11A3.35,3.35,0,0,0,23,49.46V52.8a3.35,3.35,0,1,0,6.69,0V49.46A3.35,3.35,0,0,0,26.35,46.11Z"/><path class="d" d="M70.34,79.18A3.35,3.35,0,0,0,67,82.52v3.35a3.35,3.35,0,0,0,6.69,0V82.52A3.35,3.35,0,0,0,70.34,79.18Z"/><path class="d" d="M37.34,37.71A3.35,3.35,0,0,0,34,41.06V54.48a3.35,3.35,0,0,0,6.69,0V41.06A3.35,3.35,0,0,0,37.34,37.71Z"/><path class="d" d="M48.34,46.11A3.34,3.34,0,0,0,45,49.46v14a.91.91,0,0,0,0,.17,3.35,3.35,0,1,0,6.69,0v0h0V49.46A3.35,3.35,0,0,0,48.34,46.11Z"/><path class="d" d="M59.34,52A3.35,3.35,0,0,0,56,55.36V73.19a3.35,3.35,0,1,0,6.69,0V55.36A3.34,3.34,0,0,0,59.34,52Z"/><path class="d" d="M81.33,54.48A3.34,3.34,0,0,0,78,57.82V72.63a3.35,3.35,0,1,0,6.69,0V57.82A3.34,3.34,0,0,0,81.33,54.48Z"/><path class="d" d="M92.33,49.46A3.34,3.34,0,0,0,89,52.8V64.08a3.35,3.35,0,0,0,6.69,0V52.8A3.35,3.35,0,0,0,92.33,49.46Z"/><path class="d" d="M103.33,49.46A3.35,3.35,0,0,0,100,52.8v3.35a3.35,3.35,0,0,0,6.69,0V52.8A3.34,3.34,0,0,0,103.33,49.46Z"/><path class="b" d="M127.81,93.87l5.56-35.08h7.57l-5.61,35.08Zm5.91-14.49,1.11-5.95h21.55l-1.11,5.95Zm16.76,14.49,5.6-35.08h7.52L158,93.87Z"/><path class="b" d="M167.54,67.47h7.57l-4.24,26.4H163.3Zm-.61-8.53a4.83,4.83,0,0,1,1.14-2.42,6.72,6.72,0,0,1,2.34-1.77,7,7,0,0,1,3-.66,5.74,5.74,0,0,1,2.78.66A4.25,4.25,0,0,1,178,56.52a3.84,3.84,0,0,1,.38,2.42,4.88,4.88,0,0,1-1.14,2.47,6.72,6.72,0,0,1-2.34,1.77,7,7,0,0,1-3,.66,5.71,5.71,0,0,1-2.78-.66,4.25,4.25,0,0,1-1.79-1.77A4,4,0,0,1,166.93,58.94Z"/><path class="b" d="M193.83,66.51a18.06,18.06,0,0,1,6.94,1.19,9.3,9.3,0,0,1,4.3,3.33,8.26,8.26,0,0,1,1.38,4.87h-7.32a3.43,3.43,0,0,0-1.66-2.83,8.46,8.46,0,0,0-4.54-1,10.45,10.45,0,0,0-3.18.43,4.56,4.56,0,0,0-2,1.14,2.36,2.36,0,0,0-.71,1.46,2.08,2.08,0,0,0,1.14,2,10.21,10.21,0,0,0,4.16.91,31.56,31.56,0,0,1,8.13,1.39,7.46,7.46,0,0,1,4,2.65,5.88,5.88,0,0,1,.78,3.93,7.78,7.78,0,0,1-2.17,4.34,13.27,13.27,0,0,1-5.27,3.29,23.22,23.22,0,0,1-8.05,1.26,20,20,0,0,1-7.85-1.37,9.61,9.61,0,0,1-4.62-3.63,7.53,7.53,0,0,1-1.11-5h7.22A3.87,3.87,0,0,0,185,88a8.5,8.5,0,0,0,5.12,1.34,13.72,13.72,0,0,0,4-.51,6.48,6.48,0,0,0,2.55-1.31,2.78,2.78,0,0,0,1-1.67,1.6,1.6,0,0,0-.35-1.41,4,4,0,0,0-1.95-.91,27.69,27.69,0,0,0-4.26-.55q-6.26-.51-9.14-2.68a5.6,5.6,0,0,1-2.32-5.7,7.38,7.38,0,0,1,2.2-4.12,12.91,12.91,0,0,1,4.94-2.92A21.11,21.11,0,0,1,193.83,66.51Z"/><path class="b" d="M209.18,73.27l1-5.8h25.14l-1,5.8Zm5.3,20.6,5.65-35.23h7.57l-5.6,35.23Z"/><path class="b" d="M251.93,66.51a15.37,15.37,0,0,1,7.8,1.87,10.85,10.85,0,0,1,4.69,5.1,12.33,12.33,0,0,1,.79,7.16A15.69,15.69,0,0,1,262,87.79a18.18,18.18,0,0,1-6.41,5.14,18.49,18.49,0,0,1-8.3,1.9,14.71,14.71,0,0,1-7.62-1.9,11.17,11.17,0,0,1-4.7-5.14,12.77,12.77,0,0,1-.91-7.15,15.54,15.54,0,0,1,3.21-7.16,17.88,17.88,0,0,1,6.41-5.1A18.61,18.61,0,0,1,251.93,66.51ZM248.1,88.82a9.68,9.68,0,0,0,4.51-1.08,10.1,10.1,0,0,0,3.49-3,9.71,9.71,0,0,0,1.79-4.14,8.09,8.09,0,0,0-.28-4.19,5.78,5.78,0,0,0-2.37-3,7.5,7.5,0,0,0-4.12-1.08,9.57,9.57,0,0,0-4.46,1.08,10.49,10.49,0,0,0-3.54,3,9.56,9.56,0,0,0-1.84,4.16,7.51,7.51,0,0,0,.33,4.14,6.06,6.06,0,0,0,2.42,3A7.4,7.4,0,0,0,248.1,88.82Z"/><path class="b" d="M271.46,67.47H279l-4.24,26.4h-7.53Zm16.76,11.16a7.13,7.13,0,0,0-.43-4.52,3.16,3.16,0,0,0-3.05-1.64,6.19,6.19,0,0,0-3.46,1.13,9.19,9.19,0,0,0-2.87,3.28A16.68,16.68,0,0,0,276.66,82h-2.42a23.43,23.43,0,0,1,3.13-8.33,16.7,16.7,0,0,1,5.12-5.3,11,11,0,0,1,5.88-1.82A7.56,7.56,0,0,1,293.09,68a7.09,7.09,0,0,1,2.55,4.16,16.62,16.62,0,0,1,.05,6.52Z"/><path class="b" d="M308.31,67.47l-2.47,15.24a6.2,6.2,0,0,0,.73,4.47,4.25,4.25,0,0,0,3.81,1.69,9,9,0,0,0,4.52-1.21,10.58,10.58,0,0,0,3.63-3.46A13.83,13.83,0,0,0,320.58,79l2.32.91a19.11,19.11,0,0,1-3.26,7.8A17.57,17.57,0,0,1,313.81,93a14.36,14.36,0,0,1-7,1.87q-5,0-7.22-3.06t-1.31-8.9l2.52-15.4Zm15.6,37.65h-7.47l6-37.65h7.47Z"/><path class="b" d="M134.52,51.54l5.55-35.08h5.86l-5.55,35.08Zm17.57-35.08A16.22,16.22,0,0,1,160,18.15a9.59,9.59,0,0,1,4.34,4.51,11.45,11.45,0,0,1,.81,6.26,14.73,14.73,0,0,1-2.85,7,15.65,15.65,0,0,1-6.11,4.77,21.12,21.12,0,0,1-8.66,1.79h-10l4.69-26Zm7,12.41a6,6,0,0,0-1.71-5.45,8.45,8.45,0,0,0-6-2h-8.63l-2.68,16h8.79a10.56,10.56,0,0,0,7-2.29A9.14,9.14,0,0,0,159.05,28.87Z"/><path class="b" d="M169.65,25.14h5.81l-4.24,26.4h-5.81Zm16.26,10.5a7.38,7.38,0,0,0-.46-4.75,3.42,3.42,0,0,0-3.28-1.77,6.85,6.85,0,0,0-3.86,1.24A10.66,10.66,0,0,0,175.1,34a17.11,17.11,0,0,0-1.91,5.6H171A23.19,23.19,0,0,1,174,31.14a16.35,16.35,0,0,1,4.92-5.22,10.22,10.22,0,0,1,5.55-1.74,7.28,7.28,0,0,1,4.62,1.44,7.15,7.15,0,0,1,2.5,4,14.27,14.27,0,0,1,0,6Z"/><path class="b" d="M197.72,25.14h5.85l-4.24,26.4h-5.85Zm-.66-8.38a4.31,4.31,0,0,1,1-2.07,6.32,6.32,0,0,1,2-1.54,5.82,5.82,0,0,1,2.57-.58,4.52,4.52,0,0,1,2.32.58,3.81,3.81,0,0,1,1.52,1.54,3.07,3.07,0,0,1,.3,2.07,3.9,3.9,0,0,1-1,2.09,6.08,6.08,0,0,1-2,1.52,5.85,5.85,0,0,1-2.52.58,4.73,4.73,0,0,1-2.37-.58,4,4,0,0,1-1.54-1.52A3.23,3.23,0,0,1,197.06,16.76Z"/><path class="b" d="M235.07,40.73a15.29,15.29,0,0,1-3.49,6.06A17.65,17.65,0,0,1,225.75,51a16.75,16.75,0,0,1-7,1.51,13.49,13.49,0,0,1-7.24-1.86,10.64,10.64,0,0,1-4.32-5.1,13.2,13.2,0,0,1-.65-7.22,17.12,17.12,0,0,1,3.18-7.07,17.75,17.75,0,0,1,6.11-5.14,17,17,0,0,1,8-1.92,13.54,13.54,0,0,1,6.51,1.51,10.6,10.6,0,0,1,5.76,9.9h-5.4a6.31,6.31,0,0,0-1-3.13,6.49,6.49,0,0,0-2.63-2.35,8.56,8.56,0,0,0-4-.88,11,11,0,0,0-5.17,1.26,11.62,11.62,0,0,0-4,3.35,10.37,10.37,0,0,0-2,4.47,8.31,8.31,0,0,0,.33,4.75,6.53,6.53,0,0,0,2.75,3.23,9,9,0,0,0,4.74,1.16,10.25,10.25,0,0,0,6.09-1.92,11.46,11.46,0,0,0,4-4.8Z"/><path class="b" d="M253.29,47.55a11.74,11.74,0,0,0,4.87-1A12.3,12.3,0,0,0,262,43.86l4,2.68A17.36,17.36,0,0,1,260,50.85a19,19,0,0,1-7.8,1.64,14.42,14.42,0,0,1-7.4-1.81,10.28,10.28,0,0,1-4.44-5,12.8,12.8,0,0,1-.58-7.32,16.49,16.49,0,0,1,3.16-7.12,17.73,17.73,0,0,1,6.13-5.12,16.87,16.87,0,0,1,7.82-1.89,13.5,13.5,0,0,1,7.7,2,10.18,10.18,0,0,1,4.11,5.27,13,13,0,0,1,.41,6.84,8.18,8.18,0,0,1-.66,2.22H245.26a5.52,5.52,0,0,0,1.9,5.13A9.21,9.21,0,0,0,253.29,47.55ZM256.47,29a10.75,10.75,0,0,0-6.36,2,10.9,10.9,0,0,0-4,5.32h17.62a6.94,6.94,0,0,0-.53-3.51,6.1,6.1,0,0,0-2.45-2.75A8,8,0,0,0,256.47,29Z"/></svg>