<?xml version="1.0" encoding="iso-8859-1"?>
<!-- Generator: Adobe Illustrator 24.0.2, SVG Export Plug-In . SVG Version: 6.00 Build 0)  -->
<svg version="1.1" id="Layer_1" xmlns="http://www.w3.org/2000/svg" xmlns:xlink="http://www.w3.org/1999/xlink" x="0px" y="0px"
	 viewBox="0 0 225.715 34.875" style="enable-background:new 0 0 225.715 34.875;" xml:space="preserve">
<g>
	<path style="fill:#FFFFFF;" d="M18.12,24.203c-0.746,0-1.483,0.127-2.212,0.381c-0.729,0.254-1.462,0.538-2.2,0.852
		c-0.737,0.314-1.487,0.598-2.25,0.852c-0.763,0.254-1.551,0.381-2.365,0.381c-1.119,0-2.085-0.216-2.899-0.648
		c-0.813-0.432-1.483-1.013-2.009-1.742c-0.525-0.729-0.915-1.581-1.169-2.556c-0.254-0.974-0.381-1.996-0.381-3.064
		c0-1.051,0.105-2.182,0.318-3.395c0.211-1.211,0.534-2.424,0.966-3.636c0.433-1.212,0.975-2.377,1.627-3.497
		c0.652-1.119,1.411-2.11,2.276-2.975c0.864-0.865,1.834-1.555,2.911-2.072S13,2.31,14.306,2.31c0.916,0,1.754,0.162,2.517,0.483
		c0.763,0.322,1.454,0.759,2.073,1.31c0.618,0.551,1.161,1.191,1.627,1.919c0.466,0.729,0.856,1.5,1.17,2.314
		c0.313,0.813,0.551,1.645,0.712,2.492c0.161,0.848,0.242,1.662,0.242,2.441s-0.127,1.547-0.382,2.301
		c-0.254,0.755-0.53,1.497-0.826,2.225c-0.297,0.729-0.572,1.454-0.826,2.174c-0.254,0.721-0.382,1.428-0.382,2.124v0.279
		c0.22,0.238,0.534,0.564,0.941,0.979c0.407,0.416,0.814,0.874,1.221,1.373c0.407,0.5,0.763,1.026,1.068,1.577
		c0.305,0.551,0.458,1.081,0.458,1.589c0,0.373-0.068,0.657-0.203,0.852c-0.136,0.195-0.492,0.292-1.068,0.292l-0.61-0.61
		c-0.136-0.152-0.373-0.428-0.712-0.826c-0.339-0.398-0.699-0.822-1.081-1.271c-0.381-0.449-0.746-0.873-1.093-1.271
		c-0.348-0.398-0.589-0.682-0.725-0.852H18.12z M5.05,18.812c0,0.78,0.059,1.504,0.178,2.174c0.119,0.67,0.334,1.246,0.648,1.729
		c0.313,0.483,0.75,0.861,1.31,1.132s1.28,0.407,2.161,0.407c0.22,0,0.542-0.017,0.966-0.051c0.424-0.034,0.886-0.093,1.386-0.178
		c0.5-0.084,1.008-0.194,1.526-0.331c0.517-0.135,0.983-0.309,1.398-0.521c0.415-0.212,0.758-0.458,1.03-0.737
		c0.271-0.28,0.407-0.606,0.407-0.979c0-0.102-0.081-0.284-0.242-0.547c-0.161-0.263-0.369-0.572-0.623-0.928
		c-0.254-0.356-0.53-0.737-0.827-1.144c-0.297-0.407-0.585-0.809-0.864-1.208c-0.28-0.398-0.526-0.763-0.738-1.093
		s-0.352-0.606-0.419-0.826c0.136-0.339,0.313-0.534,0.534-0.585c0.22-0.051,0.458-0.076,0.712-0.076
		c0.356,0,0.669,0.106,0.941,0.318c0.271,0.212,0.512,0.479,0.725,0.801c0.211,0.322,0.415,0.674,0.61,1.055
		c0.194,0.381,0.402,0.733,0.623,1.055c0.22,0.322,0.458,0.589,0.712,0.801c0.254,0.212,0.559,0.318,0.915,0.318
		s0.661-0.136,0.916-0.407c0.254-0.271,0.461-0.614,0.623-1.03c0.161-0.415,0.284-0.877,0.369-1.386c0.084-0.508,0.148-1,0.19-1.475
		s0.068-0.903,0.077-1.284c0.008-0.381,0.013-0.657,0.013-0.826c0-0.966-0.102-1.937-0.305-2.912
		c-0.204-0.975-0.543-1.856-1.017-2.645c-0.475-0.788-1.102-1.432-1.882-1.932s-1.754-0.75-2.924-0.75
		c-0.899,0-1.75,0.233-2.556,0.699s-1.547,1.081-2.225,1.843C8.72,8.056,8.114,8.93,7.58,9.913
		c-0.534,0.983-0.992,1.996-1.373,3.039s-0.67,2.072-0.864,3.089C5.147,17.058,5.05,17.981,5.05,18.812z"/>
	<path style="fill:#FFFFFF;" d="M25.646,17.515c0-0.118,0.004-0.322,0.013-0.61c0.008-0.288,0.013-0.593,0.013-0.915
		s0.004-0.623,0.013-0.903c0.008-0.28,0.013-0.47,0.013-0.572c0.135-0.237,0.292-0.461,0.47-0.674
		c0.178-0.211,0.369-0.36,0.572-0.445c0.203-0.084,0.419-0.097,0.648-0.038c0.229,0.06,0.47,0.242,0.725,0.546v0.229v0.381
		c-0.017,0.085-0.055,0.305-0.114,0.661c-0.06,0.356-0.127,0.737-0.204,1.145c-0.076,0.407-0.144,0.788-0.204,1.144
		s-0.089,0.577-0.089,0.661c0,0.356,0.034,0.801,0.102,1.335c0.068,0.534,0.174,1.093,0.318,1.678
		c0.144,0.584,0.326,1.169,0.547,1.754c0.22,0.585,0.479,1.11,0.775,1.577c0.296,0.466,0.631,0.848,1.004,1.144
		c0.373,0.297,0.797,0.445,1.271,0.445c0.61,0,1.144-0.156,1.602-0.47c0.458-0.313,0.855-0.725,1.195-1.233
		c0.339-0.508,0.619-1.084,0.839-1.729c0.22-0.644,0.398-1.292,0.534-1.945c0.136-0.652,0.229-1.279,0.28-1.881
		c0.051-0.602,0.076-1.123,0.076-1.564c0-0.458-0.034-0.89-0.102-1.297c-0.068-0.407-0.148-0.809-0.242-1.208
		c-0.093-0.398-0.174-0.788-0.241-1.17c-0.068-0.381-0.102-0.775-0.102-1.182c0-0.356,0.131-0.606,0.394-0.75
		s0.547-0.216,0.852-0.216c0.407,0,0.733,0.114,0.979,0.343c0.246,0.229,0.436,0.526,0.572,0.89c0.136,0.365,0.229,0.775,0.28,1.233
		c0.051,0.458,0.077,0.912,0.077,1.36c0,0.45-0.009,0.877-0.026,1.284s-0.025,0.737-0.025,0.992c0,0.627-0.051,1.348-0.152,2.161
		c-0.102,0.814-0.267,1.649-0.496,2.505c-0.229,0.856-0.517,1.7-0.864,2.53c-0.348,0.831-0.771,1.568-1.271,2.212
		c-0.5,0.645-1.077,1.166-1.729,1.563c-0.653,0.399-1.386,0.598-2.199,0.598c-0.848,0-1.589-0.203-2.225-0.61
		c-0.636-0.407-1.178-0.945-1.627-1.614s-0.822-1.424-1.119-2.263c-0.297-0.839-0.526-1.687-0.687-2.543
		c-0.161-0.855-0.276-1.682-0.343-2.479C25.68,18.778,25.646,18.092,25.646,17.515z"/>
	<path style="fill:#FFFFFF;" d="M41.767,7.853c0.356,0.152,0.657,0.398,0.903,0.737c0.246,0.339,0.352,0.645,0.318,0.916
		c-0.034,0.271-0.246,0.458-0.636,0.559c-0.39,0.102-1.051-0.008-1.983-0.331c0-0.508,0.098-0.949,0.292-1.322
		C40.855,8.04,41.224,7.853,41.767,7.853z M41.36,18.431c0-0.102,0.004-0.28,0.013-0.534c0.008-0.254,0.017-0.525,0.025-0.813
		c0.008-0.288,0.017-0.563,0.025-0.827c0.008-0.262,0.013-0.445,0.013-0.546c0.204-0.305,0.471-0.551,0.801-0.737
		s0.665-0.339,1.004-0.458c0.067,1.017,0.233,2.098,0.496,3.242c0.263,1.144,0.542,2.297,0.839,3.458
		c0.296,1.161,0.563,2.306,0.801,3.433c0.237,1.127,0.356,2.183,0.356,3.166c0,0.848-0.432,1.271-1.297,1.271
		c-0.525,0-0.966-0.216-1.322-0.648c-0.356-0.432-0.644-0.983-0.864-1.653c-0.221-0.669-0.394-1.415-0.521-2.237
		c-0.127-0.822-0.216-1.627-0.267-2.416c-0.051-0.789-0.081-1.513-0.089-2.174C41.364,19.295,41.36,18.787,41.36,18.431z"/>
	<path style="fill:#FFFFFF;" d="M46.268,20.541c0-0.796,0.174-1.627,0.521-2.492c0.347-0.865,0.813-1.653,1.398-2.365
		c0.584-0.712,1.258-1.301,2.021-1.768c0.763-0.466,1.567-0.699,2.416-0.699c0.44,0,0.877,0.077,1.31,0.229
		c0.432,0.153,0.822,0.369,1.169,0.648c0.347,0.28,0.627,0.619,0.839,1.017c0.212,0.398,0.318,0.835,0.318,1.31
		c-0.339,0-0.644-0.038-0.915-0.114c-0.271-0.077-0.539-0.166-0.801-0.267c-0.263-0.102-0.521-0.191-0.775-0.267
		s-0.534-0.114-0.839-0.114c-0.763,0-1.386,0.195-1.869,0.584c-0.483,0.39-0.864,0.877-1.144,1.462
		c-0.28,0.584-0.471,1.212-0.572,1.881c-0.102,0.67-0.152,1.293-0.152,1.869c0,0.102,0.004,0.284,0.013,0.546
		c0.008,0.263,0.017,0.539,0.025,0.827c0.008,0.288,0.017,0.563,0.025,0.826c0.008,0.263,0.021,0.445,0.038,0.547
		c0.204,0.458,0.402,0.81,0.598,1.055c0.194,0.246,0.407,0.428,0.636,0.546c0.229,0.119,0.474,0.191,0.737,0.216
		c0.263,0.025,0.572,0.038,0.928,0.038c0.492,0,0.924-0.072,1.297-0.216c0.373-0.144,0.716-0.322,1.03-0.534
		c0.313-0.212,0.614-0.445,0.903-0.699c0.288-0.254,0.585-0.487,0.89-0.699c0.305-0.212,0.644-0.39,1.017-0.534
		c0.373-0.144,0.796-0.216,1.271-0.216c0,0.915-0.165,1.733-0.496,2.454c-0.331,0.721-0.792,1.335-1.386,1.843
		c-0.594,0.509-1.293,0.899-2.098,1.17c-0.806,0.271-1.674,0.407-2.606,0.407c-0.899,0-1.7-0.301-2.403-0.903
		c-0.704-0.602-1.306-1.343-1.805-2.225c-0.5-0.881-0.882-1.81-1.145-2.784S46.268,21.287,46.268,20.541z"/>
	<path style="fill:#FFFFFF;" d="M65.643,28.474c-0.305,0.254-0.623,0.127-0.954-0.381c-0.331-0.508-0.666-1.275-1.004-2.301
		c-0.339-1.025-0.674-2.254-1.004-3.687s-0.645-2.95-0.941-4.552s-0.581-3.225-0.852-4.869c-0.271-1.644-0.518-3.195-0.737-4.653
		c0-0.254-0.004-0.517-0.013-0.788c-0.009-0.271,0.021-0.525,0.089-0.763c0.067-0.237,0.19-0.449,0.369-0.636
		c0.178-0.187,0.453-0.331,0.826-0.433c0.051-0.017,0.136-0.004,0.254,0.039s0.242,0.098,0.369,0.165
		c0.127,0.068,0.246,0.14,0.356,0.216c0.11,0.076,0.182,0.14,0.216,0.19c-0.238,3.526,0.169,6.959,1.221,10.298
		c0.051-0.051,0.199-0.242,0.445-0.572c0.246-0.331,0.555-0.72,0.928-1.17c0.373-0.449,0.801-0.928,1.284-1.437
		c0.483-0.508,0.987-0.979,1.513-1.411c0.525-0.432,1.055-0.792,1.589-1.081c0.534-0.288,1.039-0.432,1.513-0.432
		c0.288,0,0.568,0.068,0.839,0.203c0.271,0.136,0.407,0.39,0.407,0.763c0,0.034-0.008,0.085-0.025,0.153
		c-0.017,0.068-0.025,0.119-0.025,0.152c-0.305,0.271-0.763,0.678-1.373,1.221c-0.61,0.542-1.254,1.153-1.932,1.831
		c-0.678,0.678-1.327,1.386-1.945,2.124c-0.619,0.737-1.089,1.437-1.411,2.098c-0.051,0.102-0.068,0.195-0.051,0.28
		c0.017,0.085,0.034,0.187,0.051,0.305c0.203,0.068,0.529,0.178,0.979,0.331c0.449,0.153,0.949,0.327,1.5,0.521
		s1.136,0.403,1.754,0.623s1.204,0.432,1.754,0.636c0.551,0.203,1.047,0.386,1.488,0.546c0.439,0.162,0.771,0.284,0.99,0.369
		c0.271,0.102,0.492,0.174,0.662,0.216c0.17,0.042,0.301,0.098,0.395,0.166c0.092,0.068,0.156,0.157,0.189,0.267
		c0.035,0.11,0.051,0.276,0.051,0.496c0,0.542-0.131,0.902-0.393,1.081c-0.264,0.178-0.641,0.267-1.133,0.267
		c-1.44-0.102-2.86-0.411-4.258-0.928c-1.399-0.517-2.81-1.148-4.234-1.895c-0.051,0.373-0.025,0.793,0.076,1.259
		c0.102,0.466,0.225,0.937,0.369,1.411c0.144,0.475,0.288,0.937,0.433,1.386c0.144,0.45,0.232,0.852,0.267,1.208
		s-0.008,0.64-0.127,0.852C66.287,28.369,66.033,28.474,65.643,28.474z"/>
	<path style="fill:#FFFFFF;" d="M93.791,27.813c0.102-0.44,0.344-0.809,0.725-1.106c0.382-0.296,0.822-0.568,1.322-0.813
		s1.025-0.475,1.576-0.687s1.056-0.441,1.514-0.687c0.457-0.246,0.839-0.534,1.144-0.865c0.306-0.331,0.458-0.733,0.458-1.208
		c0-0.593-0.157-1.089-0.471-1.488c-0.313-0.398-0.729-0.737-1.245-1.017c-0.518-0.28-1.106-0.517-1.768-0.712
		c-0.661-0.195-1.335-0.39-2.021-0.585c-0.687-0.194-1.36-0.411-2.021-0.648s-1.25-0.534-1.768-0.89
		c-0.517-0.356-0.932-0.788-1.245-1.297c-0.314-0.508-0.471-1.144-0.471-1.907c0-0.61,0.127-1.195,0.381-1.754
		c0.255-0.559,0.594-1.089,1.018-1.589s0.915-0.954,1.475-1.36c0.56-0.407,1.145-0.754,1.755-1.042
		c0.61-0.288,1.225-0.513,1.843-0.674c0.619-0.161,1.199-0.242,1.742-0.242h0.305c0.17,0.068,0.395,0.165,0.674,0.292
		c0.28,0.127,0.551,0.254,0.814,0.381c0.262,0.127,0.486,0.242,0.674,0.343c0.186,0.102,0.279,0.161,0.279,0.178v0.636
		c-0.356,0.051-0.813,0.127-1.373,0.229s-1.153,0.237-1.78,0.407c-0.627,0.17-1.259,0.381-1.894,0.636
		c-0.636,0.254-1.208,0.551-1.717,0.89s-0.924,0.729-1.246,1.169c-0.322,0.441-0.483,0.941-0.483,1.5
		c0,0.814,0.284,1.454,0.853,1.92c0.567,0.466,1.275,0.848,2.123,1.144c0.848,0.297,1.771,0.564,2.771,0.801
		s1.924,0.521,2.771,0.852s1.555,0.763,2.123,1.297c0.567,0.534,0.852,1.259,0.852,2.174c0,0.492-0.144,1.004-0.432,1.538
		c-0.289,0.534-0.674,1.06-1.157,1.577s-1.025,1.013-1.627,1.487c-0.603,0.475-1.221,0.886-1.856,1.233
		c-0.636,0.348-1.255,0.627-1.856,0.839c-0.602,0.212-1.131,0.318-1.589,0.318c-0.152,0-0.314-0.017-0.483-0.051
		c-0.17-0.034-0.317-0.093-0.445-0.178c-0.127-0.084-0.22-0.211-0.279-0.381C93.693,28.305,93.706,28.084,93.791,27.813z"/>
	<path style="fill:#FFFFFF;" d="M104.648,21.177c0-1.017,0.123-2.034,0.368-3.051c0.246-1.017,0.64-1.933,1.183-2.746
		c0.542-0.814,1.241-1.475,2.098-1.983c0.856-0.509,1.895-0.763,3.115-0.763c0.694,0,1.305,0.127,1.83,0.381
		s0.967,0.589,1.322,1.004c0.356,0.416,0.627,0.902,0.814,1.462c0.186,0.56,0.279,1.144,0.279,1.754c0,0.95-0.225,1.878-0.674,2.784
		c-0.449,0.907-1.047,1.704-1.793,2.39c-0.746,0.687-1.598,1.204-2.555,1.551c-0.958,0.348-1.938,0.428-2.938,0.242
		c0.017,0.542,0.199,0.979,0.547,1.31s0.767,0.581,1.259,0.75c0.491,0.169,1.004,0.28,1.538,0.331s1.005,0.076,1.411,0.076
		c0.424,0,0.827-0.038,1.208-0.114c0.382-0.077,0.759-0.161,1.132-0.254c0.372-0.093,0.754-0.178,1.144-0.254
		c0.391-0.076,0.797-0.114,1.221-0.114c0.17,0,0.344,0.009,0.521,0.025c0.178,0.017,0.339,0.06,0.483,0.127
		c0.144,0.068,0.263,0.17,0.355,0.305c0.093,0.136,0.14,0.314,0.14,0.534c0,0.356-0.131,0.653-0.394,0.89
		c-0.263,0.238-0.594,0.437-0.992,0.598c-0.398,0.162-0.843,0.289-1.335,0.381c-0.491,0.094-0.97,0.162-1.437,0.204
		c-0.466,0.042-0.89,0.067-1.271,0.076c-0.381,0.008-0.665,0.013-0.852,0.013c-1.221,0-2.31-0.19-3.268-0.572
		c-0.957-0.381-1.767-0.915-2.428-1.602s-1.166-1.517-1.513-2.492C104.822,23.444,104.648,22.363,104.648,21.177z M107.648,19.346
		c0,0.661,0.089,1.141,0.268,1.437c0.178,0.297,0.614,0.445,1.31,0.445c0.491,0,0.975-0.089,1.449-0.267
		c0.474-0.178,0.902-0.428,1.284-0.75c0.381-0.322,0.687-0.699,0.915-1.131c0.229-0.433,0.343-0.903,0.343-1.411
		c0-0.271-0.025-0.56-0.076-0.865s-0.148-0.585-0.292-0.839c-0.145-0.254-0.335-0.462-0.572-0.623s-0.543-0.242-0.915-0.242
		c-0.577,0-1.094,0.127-1.552,0.381c-0.457,0.254-0.848,0.585-1.169,0.992c-0.322,0.407-0.568,0.86-0.737,1.36
		C107.733,18.333,107.648,18.837,107.648,19.346z"/>
	<path style="fill:#FFFFFF;" d="M132.567,25.397c-0.712,0.492-1.327,0.928-1.844,1.31c-0.518,0.381-1.021,0.704-1.513,0.966
		c-0.492,0.263-1.018,0.462-1.577,0.598c-0.559,0.136-1.237,0.203-2.034,0.203c-1.763,0-3.068-0.466-3.915-1.398
		c-0.848-0.932-1.271-2.322-1.271-4.17c0-0.712,0.097-1.458,0.292-2.238c0.195-0.779,0.475-1.551,0.839-2.313
		c0.365-0.763,0.802-1.488,1.31-2.174c0.509-0.687,1.081-1.292,1.717-1.818s1.317-0.945,2.047-1.259
		c0.729-0.313,1.5-0.47,2.313-0.47c1.356,0.136,2.42,0.475,3.191,1.017s1.356,1.229,1.755,2.06c0.397,0.831,0.669,1.763,0.813,2.797
		c0.144,1.034,0.258,2.098,0.343,3.191c0.085,1.094,0.195,2.183,0.331,3.268c0.136,1.085,0.406,2.094,0.813,3.026
		c-0.237,0.627-0.467,1.068-0.687,1.322c-0.221,0.254-0.462,0.292-0.725,0.114c-0.263-0.178-0.568-0.593-0.915-1.246
		C133.504,27.529,133.075,26.602,132.567,25.397z M122.828,22.957c0,1.068,0.204,1.852,0.61,2.352c0.407,0.5,1.127,0.75,2.161,0.75
		c0.764,0,1.496-0.135,2.2-0.407c0.703-0.271,1.322-0.648,1.855-1.131c0.534-0.483,0.962-1.063,1.284-1.742s0.483-1.424,0.483-2.238
		c0-0.339,0.009-0.818,0.025-1.437s-0.021-1.229-0.114-1.831c-0.094-0.602-0.271-1.123-0.534-1.563s-0.665-0.661-1.208-0.661
		c-0.966,0-1.864,0.25-2.695,0.75c-0.83,0.5-1.547,1.136-2.148,1.907s-1.072,1.623-1.411,2.555
		C122.998,21.194,122.828,22.092,122.828,22.957z"/>
	<path style="fill:#FFFFFF;" d="M137.958,17.159c0-0.169,0.008-0.343,0.025-0.521c0.017-0.178,0.055-0.339,0.114-0.483
		c0.06-0.144,0.152-0.263,0.279-0.356c0.128-0.093,0.301-0.14,0.521-0.14c0.187,0,0.398,0.148,0.636,0.445
		c0.237,0.297,0.479,0.666,0.725,1.106c0.246,0.441,0.483,0.924,0.712,1.449c0.229,0.526,0.437,1.013,0.623,1.462
		s0.335,0.831,0.445,1.144c0.11,0.314,0.174,0.479,0.19,0.496c0.237-0.644,0.509-1.356,0.813-2.136
		c0.306-0.779,0.678-1.504,1.119-2.174c0.44-0.669,0.97-1.229,1.589-1.678c0.619-0.449,1.369-0.674,2.251-0.674
		c0.44,0,0.864,0.072,1.271,0.216c0.407,0.144,0.768,0.352,1.081,0.623c0.313,0.271,0.563,0.598,0.75,0.979s0.28,0.81,0.28,1.284
		c0,0.424-0.166,0.721-0.496,0.89c-0.331,0.169-0.699,0.254-1.106,0.254h-0.279l-1.221-1.22c-0.034,0-0.068-0.008-0.102-0.025
		c-0.034,0-0.063-0.004-0.089-0.013c-0.025-0.008-0.056-0.013-0.089-0.013c-0.661,0-1.179,0.182-1.552,0.546
		c-0.373,0.365-0.652,0.814-0.839,1.348c-0.187,0.534-0.301,1.102-0.343,1.704c-0.043,0.602-0.064,1.141-0.064,1.615
		c0,0.39,0.039,0.775,0.115,1.157c0.076,0.382,0.16,0.759,0.254,1.132c0.093,0.373,0.178,0.75,0.254,1.131
		c0.077,0.381,0.115,0.775,0.115,1.183c0,0.797-0.425,1.195-1.271,1.195c-0.475,0-0.967-0.25-1.475-0.75
		c-0.509-0.5-1.014-1.136-1.514-1.907c-0.5-0.771-0.975-1.623-1.424-2.555s-0.843-1.839-1.183-2.721
		c-0.339-0.881-0.609-1.682-0.813-2.403C138.06,18.028,137.958,17.499,137.958,17.159z"/>
	<path style="fill:#FFFFFF;" d="M151.841,20.541c0-0.796,0.174-1.627,0.521-2.492c0.347-0.865,0.813-1.653,1.398-2.365
		s1.259-1.301,2.021-1.768c0.763-0.466,1.567-0.699,2.415-0.699c0.441,0,0.878,0.077,1.31,0.229c0.433,0.153,0.822,0.369,1.17,0.648
		s0.627,0.619,0.839,1.017c0.212,0.398,0.318,0.835,0.318,1.31c-0.34,0-0.645-0.038-0.916-0.114
		c-0.271-0.077-0.538-0.166-0.801-0.267c-0.263-0.102-0.521-0.191-0.775-0.267s-0.534-0.114-0.839-0.114
		c-0.763,0-1.386,0.195-1.869,0.584c-0.483,0.39-0.864,0.877-1.145,1.462c-0.279,0.584-0.47,1.212-0.571,1.881
		c-0.103,0.67-0.153,1.293-0.153,1.869c0,0.102,0.004,0.284,0.013,0.546c0.009,0.263,0.017,0.539,0.025,0.827
		s0.017,0.563,0.025,0.826c0.009,0.263,0.021,0.445,0.038,0.547c0.204,0.458,0.403,0.81,0.598,1.055
		c0.195,0.246,0.407,0.428,0.636,0.546c0.229,0.119,0.475,0.191,0.737,0.216s0.572,0.038,0.929,0.038
		c0.491,0,0.924-0.072,1.297-0.216c0.372-0.144,0.716-0.322,1.029-0.534c0.313-0.212,0.614-0.445,0.902-0.699
		s0.585-0.487,0.891-0.699c0.305-0.212,0.644-0.39,1.017-0.534c0.373-0.144,0.797-0.216,1.271-0.216
		c0,0.915-0.165,1.733-0.496,2.454c-0.33,0.721-0.792,1.335-1.386,1.843c-0.593,0.509-1.292,0.899-2.098,1.17
		c-0.805,0.271-1.674,0.407-2.606,0.407c-0.898,0-1.699-0.301-2.402-0.903c-0.704-0.602-1.306-1.343-1.806-2.225
		s-0.882-1.81-1.144-2.784C151.972,22.147,151.841,21.287,151.841,20.541z"/>
	<path style="fill:#FFFFFF;" d="M166.538,10.675c0-0.204,0.025-0.462,0.076-0.775s0.136-0.61,0.255-0.89
		c0.118-0.28,0.274-0.521,0.47-0.725s0.437-0.305,0.725-0.305c0.034,0,0.085,0.009,0.152,0.025c0.068,0.017,0.119,0.025,0.153,0.025
		c0.321,1.17,0.508,2.331,0.56,3.483c0.051,1.153,0.029,2.272-0.064,3.356c-0.093,1.085-0.232,2.128-0.419,3.128
		s-0.344,1.924-0.471,2.771s-0.203,1.614-0.229,2.301s0.071,1.259,0.292,1.716c-0.034-0.288-0.055-0.644-0.063-1.068
		c-0.009-0.423,0.029-0.864,0.114-1.322c0.085-0.458,0.225-0.911,0.42-1.36c0.194-0.449,0.483-0.852,0.864-1.208
		c0.382-0.356,0.869-0.64,1.462-0.852c0.594-0.211,1.331-0.318,2.213-0.318c0.915,0,1.707,0.162,2.377,0.483
		c0.67,0.322,1.225,0.759,1.666,1.31c0.44,0.551,0.767,1.199,0.979,1.945c0.212,0.747,0.317,1.543,0.317,2.39
		c0,0.407-0.004,0.861-0.013,1.361s-0.076,0.962-0.203,1.386s-0.343,0.78-0.648,1.068c-0.305,0.288-0.763,0.432-1.373,0.432
		c0-0.305,0.021-0.716,0.063-1.233c0.042-0.517,0.067-1.068,0.076-1.652c0.009-0.585-0.013-1.178-0.063-1.78
		c-0.051-0.602-0.178-1.144-0.381-1.627c-0.204-0.483-0.492-0.877-0.865-1.182s-0.873-0.458-1.5-0.458
		c-0.237,0-0.521,0.013-0.852,0.038c-0.331,0.025-0.665,0.114-1.004,0.267c-0.34,0.152-0.666,0.381-0.979,0.687
		c-0.313,0.305-0.568,0.729-0.763,1.271c-0.195,0.543-0.306,1.225-0.331,2.047c-0.025,0.823,0.072,1.827,0.293,3.013
		c-0.119,0.339-0.28,0.534-0.483,0.585s-0.449,0.076-0.737,0.076c-0.61,0-1.106-0.212-1.487-0.636
		c-0.382-0.423-0.679-0.992-0.89-1.704c-0.213-0.712-0.353-1.538-0.42-2.479c-0.068-0.941-0.094-1.928-0.076-2.962
		c0.017-1.034,0.067-2.081,0.152-3.14c0.085-1.059,0.174-2.063,0.267-3.013c0.094-0.949,0.179-1.813,0.255-2.594
		C166.5,11.777,166.538,11.15,166.538,10.675z"/>
</g>
<g>
	<path style="fill:#FFFFFF;" d="M196.54,12.718c0.13,0.003,0.36,0.002,0.695,0c0.334-0.003,0.683,0,1.049,0.009
		c0.365,0.008,0.71,0.011,1.032,0.008c0.324-0.003,0.561-0.003,0.712,0c0.473,0.011,1.283,0.046,2.435,0.105
		c1.15,0.059,2.455,0.165,3.916,0.317c1.46,0.152,2.967,0.36,4.523,0.622c1.553,0.263,2.978,0.598,4.271,1.005
		c1.292,0.406,2.353,0.889,3.179,1.446s1.231,1.224,1.213,1.998c0,0.021-0.007,0.054-0.019,0.097s-0.018,0.085-0.019,0.129
		c-0.024,0.064-0.035,0.117-0.036,0.161c-0.046,0.084-0.168,0.222-0.365,0.411c-0.198,0.189-0.352,0.304-0.46,0.345l-0.355-0.008
		l-0.387-0.009c-0.172-0.047-0.509-0.137-1.012-0.266c-0.503-0.13-1.097-0.279-1.78-0.446c-0.687-0.167-1.414-0.351-2.184-0.551
		c-0.771-0.201-1.492-0.391-2.167-0.567c-0.674-0.178-1.268-0.332-1.781-0.462c-0.514-0.131-0.845-0.219-0.994-0.266
		c-0.063-0.023-0.16-0.025-0.29-0.007s-0.271,0.037-0.422,0.055c-0.151,0.018-0.287,0.036-0.404,0.055
		c-0.12,0.018-0.211,0.027-0.275,0.025c-0.012,0.495,0.053,0.986,0.191,1.474c0.139,0.487,0.295,0.98,0.466,1.48
		c0.171,0.499,0.326,1.003,0.466,1.513c0.139,0.509,0.201,1.032,0.188,1.57c-0.037,1.614-0.522,2.786-1.455,3.518
		c-0.933,0.731-2.172,1.079-3.722,1.043c-1.227-0.029-2.419-0.336-3.579-0.923c-1.159-0.588-2.186-1.354-3.077-2.3
		c-0.894-0.947-1.606-2.013-2.139-3.198c-0.531-1.187-0.782-2.393-0.754-3.619c0.014-0.581,0.059-1.097,0.133-1.547
		c0.075-0.45,0.23-0.861,0.465-1.232s0.565-0.719,0.993-1.042S195.802,13.023,196.54,12.718z M200.294,16.551
		c-0.258-0.006-0.609,0.013-1.051,0.056c-0.443,0.043-0.876,0.13-1.298,0.26c-0.423,0.13-0.793,0.321-1.111,0.572
		s-0.482,0.591-0.492,1.021c-0.014,0.581,0.187,1.216,0.601,1.903c0.415,0.688,0.933,1.33,1.554,1.926s1.287,1.101,1.999,1.516
		c0.711,0.415,1.357,0.629,1.938,0.643c0.452,0.01,0.788-0.062,1.006-0.219c0.219-0.156,0.38-0.362,0.484-0.618
		c0.103-0.256,0.157-0.557,0.165-0.9c0.008-0.345,0.017-0.7,0.025-1.065c0.015-0.646-0.051-1.267-0.199-1.862
		c-0.147-0.596-0.377-1.134-0.688-1.614c-0.312-0.481-0.712-0.868-1.201-1.159C201.537,16.72,200.961,16.567,200.294,16.551z"/>
</g>
<g>
	<path style="fill:#FFFFFF;" d="M195.551,8.076c0.369,0.042,0.865,0.139,1.491,0.293c0.625,0.154,1.301,0.36,2.026,0.619
		c0.726,0.258,1.46,0.569,2.201,0.932c0.743,0.363,1.406,0.764,1.99,1.202s1.049,0.915,1.392,1.429
		c0.342,0.514,0.48,1.064,0.414,1.653c-0.002,0.019-0.01,0.042-0.021,0.067c-0.013,0.027-0.021,0.059-0.024,0.096
		c-0.022,0.035-0.036,0.079-0.043,0.134c-0.026,0.072-0.08,0.178-0.162,0.318c-0.08,0.14-0.16,0.275-0.24,0.406
		c-0.08,0.131-0.163,0.247-0.249,0.35c-0.087,0.102-0.148,0.16-0.188,0.174c-0.037-0.004-0.075,0-0.112,0.015
		c-0.038-0.004-0.071-0.003-0.1,0.003s-0.061,0.007-0.098,0.003c-0.701-0.079-1.375-0.37-2.027-0.871
		c-0.651-0.502-1.316-1.047-1.996-1.636c-0.68-0.589-1.404-1.141-2.177-1.656c-0.771-0.516-1.626-0.826-2.565-0.931
		c-1.27-0.143-2.405-0.098-3.41,0.134s-1.954,0.596-2.849,1.092c-0.894,0.496-1.769,1.105-2.623,1.83
		c-0.854,0.724-1.749,1.509-2.684,2.354c-0.037-0.004-0.093-0.001-0.168,0.009c-0.075,0.01-0.132,0.013-0.169,0.009
		c-0.404-0.045-0.665-0.219-0.78-0.521c-0.115-0.303-0.153-0.628-0.113-0.977c0.103-0.92,0.403-1.73,0.901-2.429
		s1.121-1.304,1.867-1.816c0.747-0.513,1.578-0.937,2.49-1.272c0.914-0.335,1.847-0.589,2.798-0.762
		c0.952-0.172,1.88-0.278,2.789-0.316C194.021,7.974,194.834,7.996,195.551,8.076z"/>
</g>
<path style="fill:#FFFFFF;" d="M213.332,10.063c-0.757,2.892,5.701,4.199,5.043,8.007c-0.36,2.084-8.349,6.177-6.09,8.918
	c2.043,2.479,7.782-3.745,8.841-5.347c1.922-2.908,0.744-6.703-1.208-9.265C218.984,11.151,214.23,6.633,213.332,10.063z"/>
</svg>
